solid svg2stl
facet normal -0.0709804554871136 -0.72067665875075 -0.689628108817134
outer loop
vertex 0 27.862898 -1052.4285
vertex 5.43578174312254 27.3275202277766 -1052.4285
vertex -0.0258846756175513 -0.130131051972983 -1023.1725
endloop
endfacet
facet normal 0.070980455487186 0.720676658750747 0.68962810881713
outer loop
vertex 0 27.862898 -1052.4285
vertex -0.0258846756175513 -0.130131051972983 -1023.1725
vertex 0 -0.13268047 -1023.1725
endloop
endfacet
facet normal -0.210213627363269 -0.692981458915085 -0.689628108817134
outer loop
vertex 5.43578174312254 27.3275202277766 -1052.4285
vertex 10.6626694422784 25.7419611786497 -1052.4285
vertex -0.0507746176674135 -0.122580770596978 -1023.1725
endloop
endfacet
facet normal 0.210213627363167 0.692981458915092 0.689628108817158
outer loop
vertex 5.43578174312254 27.3275202277766 -1052.4285
vertex -0.0507746176674135 -0.122580770596978 -1023.1725
vertex -0.0258846756175513 -0.130131051972983 -1023.1725
endloop
endfacet
facet normal -0.341368407429015 -0.638655370241793 -0.689628108817134
outer loop
vertex 10.6626694422784 25.7419611786497 -1052.4285
vertex 15.4797967344614 23.1671529976854 -1052.4285
vertex -0.0737133196350506 -0.11031977895102 -1023.1725
endloop
endfacet
facet normal 0.341368407429048 0.638655370241752 0.689628108817155
outer loop
vertex 10.6626694422784 25.7419611786497 -1052.4285
vertex -0.0737133196350506 -0.11031977895102 -1023.1725
vertex -0.0507746176674135 -0.122580770596978 -1023.1725
endloop
endfacet
facet normal -0.459404591038871 -0.559786113852167 -0.689628108817134
outer loop
vertex 15.4797967344614 23.1671529976854 -1052.4285
vertex 19.7020441193091 19.7020441193091 -1052.4285
vertex -0.0938192600680186 -0.0938192600680186 -1023.1725
endloop
endfacet
facet normal 0.459404591038865 0.559786113852206 0.689628108817106
outer loop
vertex 15.4797967344614 23.1671529976854 -1052.4285
vertex -0.0938192600680186 -0.0938192600680186 -1023.1725
vertex -0.0737133196350506 -0.11031977895102 -1023.1725
endloop
endfacet
facet normal -0.559786113852167 -0.459404591038871 -0.689628108817134
outer loop
vertex 19.7020441193091 19.7020441193091 -1052.4285
vertex 23.1671529976854 15.4797967344614 -1052.4285
vertex -0.11031977895102 -0.0737133196350506 -1023.1725
endloop
endfacet
facet normal 0.559786113852099 0.45940459103893 0.68962810881715
outer loop
vertex 19.7020441193091 19.7020441193091 -1052.4285
vertex -0.11031977895102 -0.0737133196350506 -1023.1725
vertex -0.0938192600680186 -0.0938192600680186 -1023.1725
endloop
endfacet
facet normal -0.638655370241793 -0.341368407429014 -0.689628108817134
outer loop
vertex 23.1671529976854 15.4797967344614 -1052.4285
vertex 25.7419611786497 10.6626694422784 -1052.4285
vertex -0.122580770596978 -0.0507746176674135 -1023.1725
endloop
endfacet
facet normal 0.6386553702418 0.341368407428965 0.689628108817152
outer loop
vertex 23.1671529976854 15.4797967344614 -1052.4285
vertex -0.122580770596978 -0.0507746176674135 -1023.1725
vertex -0.11031977895102 -0.0737133196350506 -1023.1725
endloop
endfacet
facet normal -0.692981458915085 -0.210213627363269 -0.689628108817134
outer loop
vertex 25.7419611786497 10.6626694422784 -1052.4285
vertex 27.3275202277766 5.43578174312254 -1052.4285
vertex -0.130131051972983 -0.0258846756175513 -1023.1725
endloop
endfacet
facet normal 0.692981458915092 0.210213627363167 0.689628108817158
outer loop
vertex 25.7419611786497 10.6626694422784 -1052.4285
vertex -0.130131051972983 -0.0258846756175513 -1023.1725
vertex -0.122580770596978 -0.0507746176674135 -1023.1725
endloop
endfacet
facet normal -0.72067665875075 -0.0709804554871136 -0.689628108817134
outer loop
vertex 27.3275202277766 5.43578174312254 -1052.4285
vertex 27.862898 1.70611044253346e-15 -1052.4285
vertex -0.13268047 -8.12433564474334e-18 -1023.1725
endloop
endfacet
facet normal 0.720676658750743 0.0709804554871837 0.689628108817134
outer loop
vertex 27.3275202277766 5.43578174312254 -1052.4285
vertex -0.13268047 -8.12433564474334e-18 -1023.1725
vertex -0.130131051972983 -0.0258846756175513 -1023.1725
endloop
endfacet
facet normal -0.72067665875075 0.0709804554871136 -0.689628108817134
outer loop
vertex 27.862898 1.70611044253346e-15 -1052.4285
vertex 27.3275202277766 -5.43578174312253 -1052.4285
vertex -0.130131051972983 0.0258846756175513 -1023.1725
endloop
endfacet
facet normal 0.720676658750747 -0.070980455487186 0.68962810881713
outer loop
vertex 27.862898 1.70611044253346e-15 -1052.4285
vertex -0.130131051972983 0.0258846756175513 -1023.1725
vertex -0.13268047 -8.12433564474334e-18 -1023.1725
endloop
endfacet
facet normal -0.692981458915085 0.210213627363269 -0.689628108817134
outer loop
vertex 27.3275202277766 -5.43578174312253 -1052.4285
vertex 25.7419611786497 -10.6626694422784 -1052.4285
vertex -0.122580770596978 0.0507746176674135 -1023.1725
endloop
endfacet
facet normal 0.692981458915119 -0.210213627363167 0.689628108817131
outer loop
vertex 27.3275202277766 -5.43578174312253 -1052.4285
vertex -0.122580770596978 0.0507746176674135 -1023.1725
vertex -0.130131051972983 0.0258846756175513 -1023.1725
endloop
endfacet
facet normal -0.638655370241793 0.341368407429014 -0.689628108817134
outer loop
vertex 25.7419611786497 -10.6626694422784 -1052.4285
vertex 23.1671529976854 -15.4797967344614 -1052.4285
vertex -0.11031977895102 0.0737133196350505 -1023.1725
endloop
endfacet
facet normal 0.638655370241752 -0.341368407429048 0.689628108817155
outer loop
vertex 25.7419611786497 -10.6626694422784 -1052.4285
vertex -0.11031977895102 0.0737133196350505 -1023.1725
vertex -0.122580770596978 0.0507746176674135 -1023.1725
endloop
endfacet
facet normal -0.559786113852167 0.459404591038871 -0.689628108817134
outer loop
vertex 23.1671529976854 -15.4797967344614 -1052.4285
vertex 19.7020441193091 -19.7020441193091 -1052.4285
vertex -0.0938192600680186 0.0938192600680186 -1023.1725
endloop
endfacet
facet normal 0.559786113852197 -0.459404591038793 0.689628108817161
outer loop
vertex 23.1671529976854 -15.4797967344614 -1052.4285
vertex -0.0938192600680186 0.0938192600680186 -1023.1725
vertex -0.11031977895102 0.0737133196350505 -1023.1725
endloop
endfacet
facet normal -0.459404591038871 0.559786113852167 -0.689628108817134
outer loop
vertex 19.7020441193091 -19.7020441193091 -1052.4285
vertex 15.4797967344614 -23.1671529976854 -1052.4285
vertex -0.0737133196350505 0.11031977895102 -1023.1725
endloop
endfacet
facet normal 0.45940459103893 -0.559786113852099 0.68962810881715
outer loop
vertex 19.7020441193091 -19.7020441193091 -1052.4285
vertex -0.0737133196350505 0.11031977895102 -1023.1725
vertex -0.0938192600680186 0.0938192600680186 -1023.1725
endloop
endfacet
facet normal -0.341368407429014 0.638655370241793 -0.689628108817134
outer loop
vertex 15.4797967344614 -23.1671529976854 -1052.4285
vertex 10.6626694422784 -25.7419611786497 -1052.4285
vertex -0.0507746176674135 0.122580770596978 -1023.1725
endloop
endfacet
facet normal 0.341368407429048 -0.638655370241752 0.689628108817155
outer loop
vertex 15.4797967344614 -23.1671529976854 -1052.4285
vertex -0.0507746176674135 0.122580770596978 -1023.1725
vertex -0.0737133196350505 0.11031977895102 -1023.1725
endloop
endfacet
facet normal -0.210213627363269 0.692981458915085 -0.689628108817134
outer loop
vertex 10.6626694422784 -25.7419611786497 -1052.4285
vertex 5.43578174312255 -27.3275202277766 -1052.4285
vertex -0.0258846756175514 0.130131051972983 -1023.1725
endloop
endfacet
facet normal 0.210213627363167 -0.692981458915146 0.689628108817104
outer loop
vertex 10.6626694422784 -25.7419611786497 -1052.4285
vertex -0.0258846756175514 0.130131051972983 -1023.1725
vertex -0.0507746176674135 0.122580770596978 -1023.1725
endloop
endfacet
facet normal -0.0709804554871135 0.72067665875075 -0.689628108817134
outer loop
vertex 5.43578174312255 -27.3275202277766 -1052.4285
vertex 3.41222088506692e-15 -27.862898 -1052.4285
vertex -1.62486712894867e-17 0.13268047 -1023.1725
endloop
endfacet
facet normal 0.0709804554871837 -0.720676658750743 0.689628108817134
outer loop
vertex 5.43578174312255 -27.3275202277766 -1052.4285
vertex -1.62486712894867e-17 0.13268047 -1023.1725
vertex -0.0258846756175514 0.130131051972983 -1023.1725
endloop
endfacet
facet normal 0.0709804554871135 0.72067665875075 -0.689628108817134
outer loop
vertex 3.41222088506692e-15 -27.862898 -1052.4285
vertex -5.43578174312254 -27.3275202277766 -1052.4285
vertex 0.0258846756175513 0.130131051972983 -1023.1725
endloop
endfacet
facet normal -0.070980455487186 -0.720676658750747 0.68962810881713
outer loop
vertex 3.41222088506692e-15 -27.862898 -1052.4285
vertex 0.0258846756175513 0.130131051972983 -1023.1725
vertex -1.62486712894867e-17 0.13268047 -1023.1725
endloop
endfacet
facet normal 0.210213627363269 0.692981458915086 -0.689628108817134
outer loop
vertex -5.43578174312254 -27.3275202277766 -1052.4285
vertex -10.6626694422784 -25.7419611786497 -1052.4285
vertex 0.0507746176674135 0.122580770596978 -1023.1725
endloop
endfacet
facet normal -0.210213627363171 -0.692981458915105 0.689628108817144
outer loop
vertex -5.43578174312254 -27.3275202277766 -1052.4285
vertex 0.0507746176674135 0.122580770596978 -1023.1725
vertex 0.0258846756175513 0.130131051972983 -1023.1725
endloop
endfacet
facet normal 0.341368407429014 0.638655370241793 -0.689628108817134
outer loop
vertex -10.6626694422784 -25.7419611786497 -1052.4285
vertex -15.4797967344614 -23.1671529976854 -1052.4285
vertex 0.0737133196350505 0.11031977895102 -1023.1725
endloop
endfacet
facet normal -0.341368407429036 -0.638655370241784 0.689628108817131
outer loop
vertex -10.6626694422784 -25.7419611786497 -1052.4285
vertex 0.0737133196350505 0.11031977895102 -1023.1725
vertex 0.0507746176674135 0.122580770596978 -1023.1725
endloop
endfacet
facet normal 0.459404591038871 0.559786113852167 -0.689628108817134
outer loop
vertex -15.4797967344614 -23.1671529976854 -1052.4285
vertex -19.7020441193091 -19.7020441193091 -1052.4285
vertex 0.0938192600680185 0.0938192600680186 -1023.1725
endloop
endfacet
facet normal -0.459404591038793 -0.559786113852197 0.689628108817161
outer loop
vertex -15.4797967344614 -23.1671529976854 -1052.4285
vertex 0.0938192600680185 0.0938192600680186 -1023.1725
vertex 0.0737133196350505 0.11031977895102 -1023.1725
endloop
endfacet
facet normal 0.559786113852167 0.459404591038871 -0.689628108817134
outer loop
vertex -19.7020441193091 -19.7020441193091 -1052.4285
vertex -23.1671529976854 -15.4797967344614 -1052.4285
vertex 0.11031977895102 0.0737133196350506 -1023.1725
endloop
endfacet
facet normal -0.559786113852201 -0.459404591038817 0.689628108817142
outer loop
vertex -19.7020441193091 -19.7020441193091 -1052.4285
vertex 0.11031977895102 0.0737133196350506 -1023.1725
vertex 0.0938192600680185 0.0938192600680186 -1023.1725
endloop
endfacet
facet normal 0.638655370241793 0.341368407429015 -0.689628108817134
outer loop
vertex -23.1671529976854 -15.4797967344614 -1052.4285
vertex -25.7419611786497 -10.6626694422784 -1052.4285
vertex 0.122580770596978 0.0507746176674135 -1023.1725
endloop
endfacet
facet normal -0.638655370241776 -0.341368407428952 0.689628108817181
outer loop
vertex -23.1671529976854 -15.4797967344614 -1052.4285
vertex 0.122580770596978 0.0507746176674135 -1023.1725
vertex 0.11031977895102 0.0737133196350506 -1023.1725
endloop
endfacet
facet normal 0.692981458915085 0.210213627363269 -0.689628108817134
outer loop
vertex -25.7419611786497 -10.6626694422784 -1052.4285
vertex -27.3275202277766 -5.43578174312255 -1052.4285
vertex 0.130131051972983 0.0258846756175514 -1023.1725
endloop
endfacet
facet normal -0.692981458915092 -0.210213627363167 0.689628108817158
outer loop
vertex -25.7419611786497 -10.6626694422784 -1052.4285
vertex 0.130131051972983 0.0258846756175514 -1023.1725
vertex 0.122580770596978 0.0507746176674135 -1023.1725
endloop
endfacet
facet normal 0.72067665875075 0.070980455487114 -0.689628108817134
outer loop
vertex -27.3275202277766 -5.43578174312255 -1052.4285
vertex -27.862898 -5.11833132760038e-15 -1052.4285
vertex 0.13268047 2.437300693423e-17 -1023.1725
endloop
endfacet
facet normal -0.720676658750743 -0.0709804554871837 0.689628108817134
outer loop
vertex -27.3275202277766 -5.43578174312255 -1052.4285
vertex 0.13268047 2.437300693423e-17 -1023.1725
vertex 0.130131051972983 0.0258846756175514 -1023.1725
endloop
endfacet
facet normal 0.72067665875075 -0.0709804554871135 -0.689628108817134
outer loop
vertex -27.862898 -5.11833132760038e-15 -1052.4285
vertex -27.3275202277766 5.43578174312254 -1052.4285
vertex 0.130131051972983 -0.0258846756175513 -1023.1725
endloop
endfacet
facet normal -0.720676658750747 0.0709804554871859 0.68962810881713
outer loop
vertex -27.862898 -5.11833132760038e-15 -1052.4285
vertex 0.130131051972983 -0.0258846756175513 -1023.1725
vertex 0.13268047 2.437300693423e-17 -1023.1725
endloop
endfacet
facet normal 0.692981458915085 -0.210213627363269 -0.689628108817134
outer loop
vertex -27.3275202277766 5.43578174312254 -1052.4285
vertex -25.7419611786497 10.6626694422784 -1052.4285
vertex 0.122580770596978 -0.0507746176674135 -1023.1725
endloop
endfacet
facet normal -0.692981458915092 0.210213627363167 0.689628108817158
outer loop
vertex -27.3275202277766 5.43578174312254 -1052.4285
vertex 0.122580770596978 -0.0507746176674135 -1023.1725
vertex 0.130131051972983 -0.0258846756175513 -1023.1725
endloop
endfacet
facet normal 0.638655370241793 -0.341368407429014 -0.689628108817134
outer loop
vertex -25.7419611786497 10.6626694422784 -1052.4285
vertex -23.1671529976854 15.4797967344614 -1052.4285
vertex 0.11031977895102 -0.0737133196350505 -1023.1725
endloop
endfacet
facet normal -0.638655370241752 0.341368407429048 0.689628108817155
outer loop
vertex -25.7419611786497 10.6626694422784 -1052.4285
vertex 0.11031977895102 -0.0737133196350505 -1023.1725
vertex 0.122580770596978 -0.0507746176674135 -1023.1725
endloop
endfacet
facet normal 0.559786113852167 -0.459404591038871 -0.689628108817134
outer loop
vertex -23.1671529976854 15.4797967344614 -1052.4285
vertex -19.7020441193091 19.7020441193091 -1052.4285
vertex 0.0938192600680186 -0.0938192600680185 -1023.1725
endloop
endfacet
facet normal -0.559786113852176 0.459404591038776 0.68962810881719
outer loop
vertex -23.1671529976854 15.4797967344614 -1052.4285
vertex 0.0938192600680186 -0.0938192600680185 -1023.1725
vertex 0.11031977895102 -0.0737133196350505 -1023.1725
endloop
endfacet
facet normal 0.459404591038871 -0.559786113852167 -0.689628108817134
outer loop
vertex -19.7020441193091 19.7020441193091 -1052.4285
vertex -15.4797967344614 23.1671529976854 -1052.4285
vertex 0.0737133196350506 -0.11031977895102 -1023.1725
endloop
endfacet
facet normal -0.459404591038817 0.559786113852201 0.689628108817142
outer loop
vertex -19.7020441193091 19.7020441193091 -1052.4285
vertex 0.0737133196350506 -0.11031977895102 -1023.1725
vertex 0.0938192600680186 -0.0938192600680185 -1023.1725
endloop
endfacet
facet normal 0.341368407429015 -0.638655370241793 -0.689628108817134
outer loop
vertex -15.4797967344614 23.1671529976854 -1052.4285
vertex -10.6626694422784 25.7419611786497 -1052.4285
vertex 0.0507746176674135 -0.122580770596978 -1023.1725
endloop
endfacet
facet normal -0.341368407428952 0.638655370241776 0.689628108817181
outer loop
vertex -15.4797967344614 23.1671529976854 -1052.4285
vertex 0.0507746176674135 -0.122580770596978 -1023.1725
vertex 0.0737133196350506 -0.11031977895102 -1023.1725
endloop
endfacet
facet normal 0.210213627363269 -0.692981458915085 -0.689628108817134
outer loop
vertex -10.6626694422784 25.7419611786497 -1052.4285
vertex -5.43578174312255 27.3275202277766 -1052.4285
vertex 0.0258846756175514 -0.130131051972983 -1023.1725
endloop
endfacet
facet normal -0.210213627363167 0.692981458915092 0.689628108817158
outer loop
vertex -10.6626694422784 25.7419611786497 -1052.4285
vertex 0.0258846756175514 -0.130131051972983 -1023.1725
vertex 0.0507746176674135 -0.122580770596978 -1023.1725
endloop
endfacet
facet normal 0.070980455487114 -0.72067665875075 -0.689628108817134
outer loop
vertex -5.43578174312255 27.3275202277766 -1052.4285
vertex -6.82444177013384e-15 27.862898 -1052.4285
vertex 3.24973425789734e-17 -0.13268047 -1023.1725
endloop
endfacet
facet normal -0.0709804554871837 0.720676658750743 0.689628108817134
outer loop
vertex -5.43578174312255 27.3275202277766 -1052.4285
vertex 3.24973425789734e-17 -0.13268047 -1023.1725
vertex 0.0258846756175514 -0.130131051972983 -1023.1725
endloop
endfacet
endsolid svg2stl
